<svg width="46" height="46" viewBox="0 0 46 46" fill="none" xmlns="http://www.w3.org/2000/svg">
<g filter="url(#filter0_i)">
<path d="M40.835 0L4.53809 0C2.04268 0 0.0236621 2.02915 0.0236621 4.50921L0.000976563 45.0921L9.07521 36.0737H40.835C43.3304 36.0737 45.3721 34.0446 45.3721 31.5645V4.50921C45.3721 2.02915 43.3304 0 40.835 0Z" fill="white"/>
</g>
<path opacity="0.3" d="M38.8105 16.4525H37.3819C37.3819 16.4525 35.001 16.4763 35.001 19.0716C35.001 21.6668 37.3819 21.6906 37.3819 21.6906H38.8105V25.8811C38.8105 27.0335 37.8676 27.9763 36.7153 27.9763H31.7343H28.0772H23.0962C21.9438 27.9763 21.001 27.0335 21.001 25.8811V21.9001L21.0115 16.243V12.262C21.0115 11.1097 21.9438 10.1668 23.0962 10.1668H27.2867V9.59537C27.2867 8.14965 28.46 6.97632 29.9057 6.97632C31.3515 6.97632 32.5248 8.14965 32.5248 9.59537V10.1668H36.7153C37.8676 10.1668 38.8105 11.1097 38.8105 12.262V16.4525Z" fill="#585858"/>
<path d="M19.001 21.3913H18.1988C18.1988 21.3913 16.8619 21.4049 16.8619 22.8879C16.8619 24.3709 18.1988 24.3845 18.1988 24.3845H19.001V26.779C19.001 27.4375 18.4716 27.9763 17.8245 27.9763H15.0277H12.9742H10.1774C9.53039 27.9763 9.00098 27.4375 9.00098 26.779V24.5042L9.00686 21.2716V18.9967C9.00686 18.3382 9.53039 17.7994 10.1774 17.7994H12.5304V17.4729C12.5304 16.6468 13.1892 15.9763 14.001 15.9763C14.8127 15.9763 15.4716 16.6468 15.4716 17.4729V17.7994H17.8245C18.4716 17.7994 19.001 18.3382 19.001 18.9967V21.3913Z" fill="#585858"/>
<path fill-rule="evenodd" clip-rule="evenodd" d="M37.7771 3.64817C37.5828 3.45196 37.2662 3.45042 37.07 3.64474L23.07 17.5096C22.9736 17.6052 22.9201 17.7358 22.9219 17.8716C22.9238 18.0074 22.9807 18.1366 23.0798 18.2295L37.0798 31.3646C37.2811 31.5536 37.5976 31.5435 37.7865 31.3421C37.9755 31.1407 37.9654 30.8243 37.764 30.6354L24.1423 17.8551L37.7737 4.35526C37.9699 4.16095 37.9715 3.84437 37.7771 3.64817Z" fill="#E13B1C"/>
<path fill-rule="evenodd" clip-rule="evenodd" d="M8.98532 32.3568C9.18239 32.5503 9.49896 32.5474 9.6924 32.3504L23.546 18.2401C23.6409 18.1434 23.6925 18.0123 23.689 17.8769C23.6855 17.7415 23.6272 17.6132 23.5274 17.5216L9.33883 4.48686C9.13546 4.30002 8.81916 4.31341 8.63236 4.51675C8.44555 4.72009 8.45898 5.03639 8.66236 5.22322L22.4702 17.9082L8.97878 31.6497C8.78533 31.8468 8.78826 32.1633 8.98532 32.3568Z" fill="#E13B1C"/>
<path fill-rule="evenodd" clip-rule="evenodd" d="M4.21611 14.0048L9.54529 16.298L8.22904 10.6476L6.55323 12.0496L4.33823 9.4019L3.67627 9.95569L5.89127 12.6034L4.21611 14.0048Z" fill="#585858"/>
<defs>
<filter id="filter0_i" x="0.000976562" y="0" width="45.3712" height="45.0921" filterUnits="userSpaceOnUse" color-interpolation-filters="sRGB">
<feFlood flood-opacity="0" result="BackgroundImageFix"/>
<feBlend mode="normal" in="SourceGraphic" in2="BackgroundImageFix" result="shape"/>
<feColorMatrix in="SourceAlpha" type="matrix" values="0 0 0 0 0 0 0 0 0 0 0 0 0 0 0 0 0 0 127 0" result="hardAlpha"/>
<feOffset/>
<feGaussianBlur stdDeviation="1"/>
<feComposite in2="hardAlpha" operator="arithmetic" k2="-1" k3="1"/>
<feColorMatrix type="matrix" values="0 0 0 0 0 0 0 0 0 0 0 0 0 0 0 0 0 0 0.21 0"/>
<feBlend mode="normal" in2="shape" result="effect1_innerShadow"/>
</filter>
</defs>
</svg>
