<svg width="46" height="46" viewBox="0 0 46 46" fill="none" xmlns="http://www.w3.org/2000/svg">
<g filter="url(#filter0_i)">
<path d="M40.835 0L4.53809 0C2.04268 0 0.0236621 2.02915 0.0236621 4.50921L0.000976563 45.0921L9.07521 36.0737H40.835C43.3304 36.0737 45.3721 34.0446 45.3721 31.5645V4.50921C45.3721 2.02915 43.3304 0 40.835 0Z" fill="white"/>
</g>
<path opacity="0.3" d="M38.8105 16.4525H37.3819C37.3819 16.4525 35.001 16.4763 35.001 19.0716C35.001 21.6668 37.3819 21.6906 37.3819 21.6906H38.8105V25.8811C38.8105 27.0335 37.8676 27.9763 36.7153 27.9763H31.7343H28.0772H23.0962C21.9438 27.9763 21.001 27.0335 21.001 25.8811V21.9001L21.0115 16.243V12.262C21.0115 11.1097 21.9438 10.1668 23.0962 10.1668H27.2867V9.59537C27.2867 8.14965 28.46 6.97632 29.9057 6.97632C31.3515 6.97632 32.5248 8.14965 32.5248 9.59537V10.1668H36.7153C37.8676 10.1668 38.8105 11.1097 38.8105 12.262V16.4525Z" fill="#585858"/>
<path d="M19.001 21.3913H18.1988C18.1988 21.3913 16.8619 21.4049 16.8619 22.8879C16.8619 24.3709 18.1988 24.3845 18.1988 24.3845H19.001V26.779C19.001 27.4375 18.4716 27.9763 17.8245 27.9763H15.0277H12.9742H10.1774C9.53039 27.9763 9.00098 27.4375 9.00098 26.779V24.5042L9.00686 21.2716V18.9967C9.00686 18.3382 9.53039 17.7994 10.1774 17.7994H12.5304V17.4729C12.5304 16.6468 13.1892 15.9763 14.001 15.9763C14.8127 15.9763 15.4716 16.6468 15.4716 17.4729V17.7994H17.8245C18.4716 17.7994 19.001 18.3382 19.001 18.9967V21.3913Z" fill="#585858"/>
<path fill-rule="evenodd" clip-rule="evenodd" d="M4.21611 14.0048L9.54529 16.298L8.22904 10.6476L6.55323 12.0496L4.33823 9.4019L3.67627 9.95569L5.89127 12.6034L4.21611 14.0048Z" fill="#585858"/>
<defs>
<filter id="filter0_i" x="0.000976562" y="0" width="45.3712" height="45.0921" filterUnits="userSpaceOnUse" color-interpolation-filters="sRGB">
<feFlood flood-opacity="0" result="BackgroundImageFix"/>
<feBlend mode="normal" in="SourceGraphic" in2="BackgroundImageFix" result="shape"/>
<feColorMatrix in="SourceAlpha" type="matrix" values="0 0 0 0 0 0 0 0 0 0 0 0 0 0 0 0 0 0 127 0" result="hardAlpha"/>
<feOffset/>
<feGaussianBlur stdDeviation="1"/>
<feComposite in2="hardAlpha" operator="arithmetic" k2="-1" k3="1"/>
<feColorMatrix type="matrix" values="0 0 0 0 0 0 0 0 0 0 0 0 0 0 0 0 0 0 0.21 0"/>
<feBlend mode="normal" in2="shape" result="effect1_innerShadow"/>
</filter>
</defs>
</svg>
