<svg width="46" height="46" viewBox="0 0 46 46" fill="none" xmlns="http://www.w3.org/2000/svg">
<g filter="url(#filter0_i)">
<path d="M40.834 0L4.53712 0C2.0417 0 0.0226856 2.02915 0.0226856 4.50921L0 45.0921L9.07423 36.0737H40.834C43.3295 36.0737 45.3712 34.0446 45.3712 31.5645V4.50921C45.3712 2.02915 43.3295 0 40.834 0Z" fill="white"/>
</g>
<path d="M30.0403 12.6437C30.2527 12.5611 30.492 12.4322 30.7594 12.2513C30.6735 11.9571 30.515 11.6798 30.2834 11.4482C29.9821 11.147 29.5969 10.9606 29.1806 10.9099C29.0024 11.244 28.8951 11.5309 28.8486 11.7735C29.3567 11.8841 29.7865 12.2067 30.0403 12.6437Z" fill="#FFDF3A"/>
<path d="M28.4694 14.9763C29.2482 14.971 29.878 14.3382 29.878 13.5581C29.878 12.7748 29.243 12.1398 28.4596 12.1398C27.6798 12.1398 27.0466 12.7726 27.041 13.5511C27.041 13.5507 27.041 13.5504 27.041 13.5504C27.041 13.5504 27.041 13.5506 27.041 13.5513C27.041 13.8745 26.6143 14.9765 26 14.9765H28.4694V14.9763Z" fill="#FFDF3A"/>
<path d="M35.9557 5.01258L35.9557 5.01262L35.9517 5.00899L35.9518 5.00894C35.6369 4.7216 32.9551 6.37396 30.9159 8.59765C30.2329 9.34955 29.7375 9.99159 29.4004 10.5313C29.8414 10.6188 30.2468 10.8344 30.5719 11.1595C30.8173 11.405 30.9953 11.6926 31.1062 11.9993C31.6012 11.6165 32.178 11.0772 32.8408 10.3545C34.8694 8.12116 36.2706 5.29994 35.9557 5.01258Z" fill="#FFDF3A"/>
<path fill-rule="evenodd" clip-rule="evenodd" d="M28.381 18.4525H29.8095V14.6185C29.5119 15.2167 28.8962 15.6287 28.1838 15.6335V15.6338H25C25.792 15.6338 26.3422 14.2129 26.3422 13.7963V13.796C26.3473 13.0833 26.7604 12.4653 27.3595 12.1668H23.5238V11.5954C23.5238 10.1497 22.3505 8.97632 20.9048 8.97632C19.459 8.97632 18.2857 10.1497 18.2857 11.5954V12.1668H14.0952C12.9429 12.1668 12.0105 13.1097 12.0105 14.262V18.243L12 23.9001V27.8811C12 29.0335 12.9429 29.9763 14.0952 29.9763H19.0762H22.7333H27.7143C28.8667 29.9763 29.8095 29.0335 29.8095 27.8811V23.6906H28.381C28.381 23.6906 26 23.6668 26 21.0716C26 18.4763 28.381 18.4525 28.381 18.4525Z" fill="#FFDF3A"/>
<path fill-rule="evenodd" clip-rule="evenodd" d="M37.7762 4.62448C37.5818 4.42828 37.2653 4.42674 37.0691 4.62105L23.0691 18.4859C22.9726 18.5815 22.9191 18.7122 22.9209 18.8479C22.9228 18.9837 22.9798 19.1129 23.0788 19.2058L37.0788 32.341C37.2802 32.5299 37.5966 32.5198 37.7855 32.3184C37.9745 32.117 37.9644 31.8006 37.763 31.6117L24.1413 18.8315L37.7727 5.33158C37.9689 5.13727 37.9705 4.82069 37.7762 4.62448Z" fill="#E13B1C"/>
<path fill-rule="evenodd" clip-rule="evenodd" d="M8.98435 33.3331C9.18141 33.5266 9.49798 33.5237 9.69143 33.3267L23.545 19.2164C23.6399 19.1197 23.6915 18.9887 23.688 18.8532C23.6845 18.7178 23.6262 18.5896 23.5264 18.4979L9.33785 5.46317C9.13448 5.27634 8.81818 5.28973 8.63138 5.49307C8.44458 5.69641 8.45801 6.01271 8.66138 6.19954L22.4693 18.8845L8.9778 32.626C8.78436 32.8231 8.78729 33.1396 8.98435 33.3331Z" fill="#E13B1C"/>
<defs>
<filter id="filter0_i" x="0" y="0" width="45.3712" height="45.0921" filterUnits="userSpaceOnUse" color-interpolation-filters="sRGB">
<feFlood flood-opacity="0" result="BackgroundImageFix"/>
<feBlend mode="normal" in="SourceGraphic" in2="BackgroundImageFix" result="shape"/>
<feColorMatrix in="SourceAlpha" type="matrix" values="0 0 0 0 0 0 0 0 0 0 0 0 0 0 0 0 0 0 127 0" result="hardAlpha"/>
<feOffset/>
<feGaussianBlur stdDeviation="1"/>
<feComposite in2="hardAlpha" operator="arithmetic" k2="-1" k3="1"/>
<feColorMatrix type="matrix" values="0 0 0 0 0 0 0 0 0 0 0 0 0 0 0 0 0 0 0.21 0"/>
<feBlend mode="normal" in2="shape" result="effect1_innerShadow"/>
</filter>
</defs>
</svg>
