<svg width="46" height="46" viewBox="0 0 46 46" fill="none" xmlns="http://www.w3.org/2000/svg">
<g filter="url(#filter0_i)">
<path d="M40.834 0L4.53712 0C2.0417 0 0.0226856 2.02915 0.0226856 4.50921L0 45.0921L9.07423 36.0737H40.834C43.3295 36.0737 45.3712 34.0446 45.3712 31.5645V4.50921C45.3712 2.02915 43.3295 0 40.834 0Z" fill="white"/>
</g>
<path d="M13 9H33V29H13V9Z" fill="#585858"/>
<path fill-rule="evenodd" clip-rule="evenodd" d="M37.7762 4.64817C37.5818 4.45196 37.2653 4.45042 37.0691 4.64474L23.0691 18.5096C22.9726 18.6052 22.9191 18.7358 22.9209 18.8716C22.9228 19.0074 22.9798 19.1366 23.0788 19.2295L37.0788 32.3646C37.2802 32.5536 37.5966 32.5435 37.7855 32.3421C37.9745 32.1407 37.9644 31.8243 37.763 31.6354L24.1413 18.8551L37.7727 5.35526C37.9689 5.16095 37.9705 4.84437 37.7762 4.64817Z" fill="#E13B1C"/>
<path fill-rule="evenodd" clip-rule="evenodd" d="M8.98435 33.3568C9.18141 33.5503 9.49798 33.5474 9.69143 33.3504L23.545 19.2401C23.6399 19.1434 23.6915 19.0123 23.688 18.8769C23.6845 18.7415 23.6262 18.6132 23.5264 18.5216L9.33785 5.48686C9.13448 5.30002 8.81818 5.31341 8.63138 5.51675C8.44458 5.72009 8.45801 6.03639 8.66138 6.22322L22.4693 18.9082L8.9778 32.6497C8.78436 32.8468 8.78729 33.1633 8.98435 33.3568Z" fill="#E13B1C"/>
<defs>
<filter id="filter0_i" x="0" y="0" width="45.3712" height="45.0921" filterUnits="userSpaceOnUse" color-interpolation-filters="sRGB">
<feFlood flood-opacity="0" result="BackgroundImageFix"/>
<feBlend mode="normal" in="SourceGraphic" in2="BackgroundImageFix" result="shape"/>
<feColorMatrix in="SourceAlpha" type="matrix" values="0 0 0 0 0 0 0 0 0 0 0 0 0 0 0 0 0 0 127 0" result="hardAlpha"/>
<feOffset/>
<feGaussianBlur stdDeviation="1"/>
<feComposite in2="hardAlpha" operator="arithmetic" k2="-1" k3="1"/>
<feColorMatrix type="matrix" values="0 0 0 0 0 0 0 0 0 0 0 0 0 0 0 0 0 0 0.21 0"/>
<feBlend mode="normal" in2="shape" result="effect1_innerShadow"/>
</filter>
</defs>
</svg>
