<svg width="46" height="46" viewBox="0 0 46 46" fill="none" xmlns="http://www.w3.org/2000/svg">
<g filter="url(#filter0_i)">
<path d="M40.834 0L4.53712 0C2.0417 0 0.0226856 2.02915 0.0226856 4.50921L0 45.0921L9.07423 36.0737H40.834C43.3295 36.0737 45.3712 34.0446 45.3712 31.5645V4.50921C45.3712 2.02915 43.3295 0 40.834 0Z" fill="white"/>
</g>
<path d="M38 6.64275L38 4.97632L36.3336 4.97632L31.4187 9.89119L33.0851 11.5576L38 6.64275ZM30.13 11.1799C29.9567 11.3532 29.9567 11.6332 30.13 11.8065L31.1698 12.8463C31.3431 13.0196 31.6231 13.0196 31.7964 12.8463L32.6096 12.0331L30.9432 10.3667L30.13 11.1799V11.1799Z" fill="#585858"/>
<path d="M30 19.3787H28.3957C28.3957 19.3787 25.7219 19.4048 25.7219 22.2472C25.7219 25.0896 28.3957 25.1156 28.3957 25.1156H30V29.7052C30 30.9673 28.9412 32 27.6471 32H22.0535H17.9465H12.3529C11.0588 32 10 30.9673 10 29.7052V25.3451L10.0118 19.1492V14.7891C10.0118 13.527 11.0588 12.4943 12.3529 12.4943H17.0588V11.8685C17.0588 10.2851 18.3765 9 20 9C21.6235 9 22.9412 10.2851 22.9412 11.8685V12.4943H27.6471C28.9412 12.4943 30 13.527 30 14.7891V19.3787Z" fill="#585858"/>
<defs>
<filter id="filter0_i" x="0" y="0" width="45.3712" height="45.0921" filterUnits="userSpaceOnUse" color-interpolation-filters="sRGB">
<feFlood flood-opacity="0" result="BackgroundImageFix"/>
<feBlend mode="normal" in="SourceGraphic" in2="BackgroundImageFix" result="shape"/>
<feColorMatrix in="SourceAlpha" type="matrix" values="0 0 0 0 0 0 0 0 0 0 0 0 0 0 0 0 0 0 127 0" result="hardAlpha"/>
<feOffset/>
<feGaussianBlur stdDeviation="1"/>
<feComposite in2="hardAlpha" operator="arithmetic" k2="-1" k3="1"/>
<feColorMatrix type="matrix" values="0 0 0 0 0 0 0 0 0 0 0 0 0 0 0 0 0 0 0.21 0"/>
<feBlend mode="normal" in2="shape" result="effect1_innerShadow"/>
</filter>
</defs>
</svg>
