<svg width="46" height="46" viewBox="0 0 46 46" fill="none" xmlns="http://www.w3.org/2000/svg">
<g filter="url(#filter0_i)">
<path d="M40.834 0.0236816L4.53712 0.0236816C2.0417 0.0236816 0.0226856 2.05283 0.0226856 4.5329L0 45.1158L9.07423 36.0974H40.834C43.3295 36.0974 45.3712 34.0682 45.3712 31.5882V4.5329C45.3712 2.05283 43.3295 0.0236816 40.834 0.0236816Z" fill="white"/>
</g>
<path d="M30.0403 12.6673C30.2527 12.5848 30.492 12.4559 30.7594 12.275C30.6735 11.9808 30.515 11.7035 30.2834 11.4719C29.9821 11.1707 29.5969 10.9843 29.1806 10.9336C29.0024 11.2677 28.8951 11.5546 28.8486 11.7971C29.3567 11.9078 29.7865 12.2303 30.0403 12.6673Z" fill="#5FA8FF"/>
<path d="M28.4694 14.9999C29.2482 14.9947 29.878 14.3619 29.878 13.5818C29.878 12.7985 29.243 12.1635 28.4596 12.1635C27.6798 12.1635 27.0466 12.7963 27.041 13.5748C27.041 13.5744 27.041 13.5741 27.041 13.5741C27.041 13.5741 27.041 13.5743 27.041 13.575C27.041 13.8981 26.6143 15.0002 26 15.0002H28.4694V14.9999Z" fill="#5FA8FF"/>
<path d="M35.9557 5.03626L35.9557 5.0363L35.9517 5.03267L35.9518 5.03263C35.6369 4.74528 32.9551 6.39764 30.9159 8.62133C30.2329 9.37323 29.7375 10.0153 29.4004 10.5549C29.8414 10.6425 30.2468 10.8581 30.5719 11.1832C30.8173 11.4286 30.9953 11.7163 31.1062 12.023C31.6012 11.6402 32.178 11.1009 32.8408 10.3781C34.8694 8.14484 36.2706 5.32363 35.9557 5.03626Z" fill="#5FA8FF"/>
<path fill-rule="evenodd" clip-rule="evenodd" d="M28.381 18.4762H29.8095V14.6422C29.5119 15.2403 28.8962 15.6523 28.1838 15.6572V15.6575H25C25.792 15.6575 26.3422 14.2366 26.3422 13.82V13.8197C26.3473 13.107 26.7604 12.4889 27.3595 12.1905H23.5238V11.619C23.5238 10.1733 22.3505 9 20.9048 9C19.459 9 18.2857 10.1733 18.2857 11.619V12.1905H14.0952C12.9429 12.1905 12.0105 13.1333 12.0105 14.2857V18.2667L12 23.9238V27.9048C12 29.0571 12.9429 30 14.0952 30H19.0762H22.7333H27.7143C28.8667 30 29.8095 29.0571 29.8095 27.9048V23.7143H28.381C28.381 23.7143 26 23.6905 26 21.0952C26 18.5 28.381 18.4762 28.381 18.4762Z" fill="#5FA8FF"/>
<path fill-rule="evenodd" clip-rule="evenodd" d="M37.7762 4.64817C37.5818 4.45196 37.2653 4.45042 37.0691 4.64474L23.0691 18.5096C22.9726 18.6052 22.9191 18.7358 22.9209 18.8716C22.9228 19.0074 22.9798 19.1366 23.0788 19.2295L37.0788 32.3646C37.2802 32.5536 37.5966 32.5435 37.7855 32.3421C37.9745 32.1407 37.9644 31.8243 37.763 31.6354L24.1413 18.8551L37.7727 5.35526C37.9689 5.16095 37.9705 4.84437 37.7762 4.64817Z" fill="#E13B1C"/>
<path fill-rule="evenodd" clip-rule="evenodd" d="M8.98435 33.3568C9.18141 33.5503 9.49798 33.5474 9.69143 33.3504L23.545 19.2401C23.6399 19.1434 23.6915 19.0123 23.688 18.8769C23.6845 18.7415 23.6262 18.6132 23.5264 18.5216L9.33785 5.48686C9.13448 5.30002 8.81818 5.31341 8.63138 5.51675C8.44458 5.72009 8.45801 6.03639 8.66138 6.22322L22.4693 18.9082L8.9778 32.6497C8.78436 32.8468 8.78729 33.1633 8.98435 33.3568Z" fill="#E13B1C"/>
<defs>
<filter id="filter0_i" x="0" y="0.0236816" width="45.3712" height="45.0921" filterUnits="userSpaceOnUse" color-interpolation-filters="sRGB">
<feFlood flood-opacity="0" result="BackgroundImageFix"/>
<feBlend mode="normal" in="SourceGraphic" in2="BackgroundImageFix" result="shape"/>
<feColorMatrix in="SourceAlpha" type="matrix" values="0 0 0 0 0 0 0 0 0 0 0 0 0 0 0 0 0 0 127 0" result="hardAlpha"/>
<feOffset/>
<feGaussianBlur stdDeviation="1"/>
<feComposite in2="hardAlpha" operator="arithmetic" k2="-1" k3="1"/>
<feColorMatrix type="matrix" values="0 0 0 0 0 0 0 0 0 0 0 0 0 0 0 0 0 0 0.21 0"/>
<feBlend mode="normal" in2="shape" result="effect1_innerShadow"/>
</filter>
</defs>
</svg>
