<svg width="46" height="46" viewBox="0 0 46 46" fill="none" xmlns="http://www.w3.org/2000/svg">
<g filter="url(#filter0_i)">
<path d="M40.834 0L4.53712 0C2.0417 0 0.0226856 2.02915 0.0226856 4.50921L0 45.0921L9.07423 36.0737H40.834C43.3295 36.0737 45.3712 34.0446 45.3712 31.5645V4.50921C45.3712 2.02915 43.3295 0 40.834 0Z" fill="white"/>
</g>
<path d="M34 18C34 24.0751 29.0751 29 23 29C16.9249 29 12 24.0751 12 18C12 11.9249 16.9249 7 23 7C29.0751 7 34 11.9249 34 18Z" fill="#585858"/>
<defs>
<filter id="filter0_i" x="0" y="0" width="45.3712" height="45.0921" filterUnits="userSpaceOnUse" color-interpolation-filters="sRGB">
<feFlood flood-opacity="0" result="BackgroundImageFix"/>
<feBlend mode="normal" in="SourceGraphic" in2="BackgroundImageFix" result="shape"/>
<feColorMatrix in="SourceAlpha" type="matrix" values="0 0 0 0 0 0 0 0 0 0 0 0 0 0 0 0 0 0 127 0" result="hardAlpha"/>
<feOffset/>
<feGaussianBlur stdDeviation="1"/>
<feComposite in2="hardAlpha" operator="arithmetic" k2="-1" k3="1"/>
<feColorMatrix type="matrix" values="0 0 0 0 0 0 0 0 0 0 0 0 0 0 0 0 0 0 0.21 0"/>
<feBlend mode="normal" in2="shape" result="effect1_innerShadow"/>
</filter>
</defs>
</svg>
