<svg width="46" height="46" viewBox="0 0 46 46" fill="none" xmlns="http://www.w3.org/2000/svg">
<g filter="url(#filter0_i)">
<path d="M40.834 0.0236816L4.53712 0.0236816C2.0417 0.0236816 0.0226856 2.05283 0.0226856 4.5329L0 45.1158L9.07423 36.0974H40.834C43.3295 36.0974 45.3712 34.0682 45.3712 31.5882V4.5329C45.3712 2.05283 43.3295 0.0236816 40.834 0.0236816Z" fill="white"/>
</g>
<path d="M30 11.3336V13H31.6664L36.5813 8.08513L34.9149 6.41869L30 11.3336ZM37.87 6.79642C38.0433 6.62311 38.0433 6.34315 37.87 6.16984L36.8302 5.12998C36.6569 4.95667 36.3769 4.95667 36.2036 5.12998L35.3904 5.9432L37.0568 7.60964L37.87 6.79642V6.79642Z" fill="#585858"/>
<path d="M28.8095 19.4762H27.381C27.381 19.4762 25 19.5 25 22.0952C25 24.6905 27.381 24.7143 27.381 24.7143H28.8095V28.9048C28.8095 30.0571 27.8667 31 26.7143 31H21.7333H18.0762H13.0952C11.9429 31 11 30.0571 11 28.9048V24.9238L11.0105 19.2667V15.2857C11.0105 14.1333 11.9429 13.1905 13.0952 13.1905H17.2857V12.619C17.2857 11.1733 18.459 10 19.9048 10C21.3505 10 22.5238 11.1733 22.5238 12.619V13.1905H26.7143C27.8667 13.1905 28.8095 14.1333 28.8095 15.2857V19.4762Z" fill="#585858"/>
<path fill-rule="evenodd" clip-rule="evenodd" d="M16.3109 12.1905C16.523 10.3943 18.0518 9 19.9048 9C21.7578 9 23.2865 10.3943 23.4987 12.1905H26.7143C28.419 12.1905 29.8095 13.581 29.8095 15.2857V20.4762H27.3971C27.3912 20.4765 27.3807 20.4772 27.3662 20.4784C27.33 20.4816 27.271 20.4884 27.1972 20.5026C27.0454 20.5317 26.8555 20.5871 26.6757 20.6869C26.5013 20.7837 26.3439 20.9174 26.2265 21.1106C26.1106 21.3013 26 21.6048 26 22.0952C26 22.5857 26.1106 22.8892 26.2265 23.0799C26.3439 23.273 26.5013 23.4068 26.6758 23.5036C26.8555 23.6034 27.0454 23.6588 27.1972 23.6879C27.271 23.702 27.33 23.7089 27.3662 23.712C27.3807 23.7133 27.3912 23.714 27.3971 23.7143H29.8095V28.9048C29.8095 30.6094 28.419 32 26.7143 32H13.0952C11.3906 32 10 30.6094 10 28.9048L10.0105 19.2667V15.2857C10.0105 13.5876 11.3841 12.1905 13.0952 12.1905H16.3109ZM27.381 24.7143C27.371 25.7142 27.3704 25.7142 27.3699 25.7142L27.3687 25.7142L27.3662 25.7142L27.3606 25.7141L27.3466 25.7138C27.336 25.7135 27.3231 25.713 27.3079 25.7123C27.2777 25.7109 27.2383 25.7085 27.1911 25.7044C27.0971 25.6961 26.9701 25.6808 26.8207 25.6521C26.526 25.5957 26.1207 25.4829 25.7052 25.2523C25.2844 25.0188 24.8465 24.66 24.5175 24.1188C24.187 23.5751 24 22.9024 24 22.0952C24 21.288 24.187 20.6154 24.5175 20.0717C24.8465 19.5305 25.2844 19.1717 25.7052 18.9381C26.1207 18.7076 26.526 18.5948 26.8207 18.5383C26.9701 18.5097 27.0971 18.4944 27.1911 18.4861C27.2383 18.482 27.2777 18.4796 27.3079 18.4782C27.3231 18.4775 27.336 18.477 27.3466 18.4767L27.3606 18.4764L27.3662 18.4763L27.3687 18.4763L27.3699 18.4763C27.3704 18.4762 27.371 18.4762 27.381 19.4762L27.371 18.4762L27.381 18.4761L27.8095 18.4762V15.2857C27.8095 14.6856 27.3144 14.1905 26.7143 14.1905H21.5238V12.619C21.5238 11.7256 20.7982 11 19.9048 11C19.0113 11 18.2857 11.7256 18.2857 12.619V14.1905H13.0952C12.5017 14.1905 12.0105 14.6791 12.0105 15.2857L12 24.9238V28.9048C12 29.5049 12.4951 30 13.0952 30H26.7143C27.3144 30 27.8095 29.5049 27.8095 28.9048V25.7143H27.371L27.381 24.7143Z" fill="#585858"/>
<path fill-rule="evenodd" clip-rule="evenodd" d="M28.8095 15.2857C28.8095 14.1333 27.8667 13.1905 26.7143 13.1905H22.5238V12.619C22.5238 11.1733 21.3505 10 19.9048 10C18.459 10 17.2857 11.1733 17.2857 12.619V13.1905H13.0952C11.9429 13.1905 11.0105 14.1333 11.0105 15.2857V19.2667L11 24.9238V28.9048C11 30.0571 11.9429 31 13.0952 31H26.7143C27.8667 31 28.8095 30.0571 28.8095 28.9048V24.7143H27.381C27.381 24.7143 25 24.6905 25 22.0952C25 19.5 27.381 19.4762 27.381 19.4762H28.8095V15.2857ZM27.3095 17.9777V15.2857C27.3095 14.9618 27.0382 14.6905 26.7143 14.6905H22.5238C21.6954 14.6905 21.0238 14.0189 21.0238 13.1905V12.619C21.0238 12.0018 20.522 11.5 19.9048 11.5C19.2875 11.5 18.7857 12.0018 18.7857 12.619V13.1905C18.7857 14.0189 18.1141 14.6905 17.2857 14.6905H13.0952C12.7811 14.6905 12.5105 14.952 12.5105 15.2857V19.2694L12.5 24.9238V28.9048C12.5 29.2287 12.7713 29.5 13.0952 29.5H26.7143C27.0382 29.5 27.3095 29.2287 27.3095 28.9048V26.2128C27.3018 26.2125 27.2936 26.2122 27.2848 26.2118C27.2481 26.2101 27.2018 26.2072 27.1474 26.2024C27.0389 26.1929 26.8949 26.1755 26.7266 26.1432C26.3962 26.0799 25.937 25.9528 25.4626 25.6895C24.9802 25.4218 24.4722 25.0068 24.0903 24.3785C23.7061 23.7466 23.5 22.9816 23.5 22.0952C23.5 21.2089 23.7061 20.4439 24.0903 19.812C24.4722 19.1837 24.9802 18.7687 25.4626 18.501C25.937 18.2377 26.3962 18.1106 26.7266 18.0473C26.8949 18.015 27.0389 17.9976 27.1474 17.988C27.2018 17.9833 27.2481 17.9804 27.2848 17.9787C27.2936 17.9783 27.3018 17.978 27.3095 17.9777Z" fill="white"/>
<path fill-rule="evenodd" clip-rule="evenodd" d="M37.7762 3.64817C37.5818 3.45196 37.2653 3.45042 37.0691 3.64474L23.0691 17.5096C22.9726 17.6052 22.9191 17.7358 22.9209 17.8716C22.9228 18.0074 22.9798 18.1366 23.0788 18.2295L37.0788 31.3646C37.2802 31.5536 37.5966 31.5435 37.7855 31.3421C37.9745 31.1407 37.9644 30.8243 37.763 30.6354L24.1413 17.8551L37.7727 4.35526C37.9689 4.16095 37.9705 3.84437 37.7762 3.64817Z" fill="#E13B1C"/>
<path fill-rule="evenodd" clip-rule="evenodd" d="M8.98435 32.3568C9.18141 32.5503 9.49798 32.5474 9.69143 32.3504L23.545 18.2401C23.6399 18.1434 23.6915 18.0123 23.688 17.8769C23.6845 17.7415 23.6262 17.6132 23.5264 17.5216L9.33785 4.48686C9.13448 4.30002 8.81818 4.31341 8.63138 4.51675C8.44458 4.72009 8.45801 5.03639 8.66138 5.22322L22.4693 17.9082L8.9778 31.6497C8.78436 31.8468 8.78729 32.1633 8.98435 32.3568Z" fill="#E13B1C"/>
<defs>
<filter id="filter0_i" x="0" y="0.0236816" width="45.3712" height="45.0921" filterUnits="userSpaceOnUse" color-interpolation-filters="sRGB">
<feFlood flood-opacity="0" result="BackgroundImageFix"/>
<feBlend mode="normal" in="SourceGraphic" in2="BackgroundImageFix" result="shape"/>
<feColorMatrix in="SourceAlpha" type="matrix" values="0 0 0 0 0 0 0 0 0 0 0 0 0 0 0 0 0 0 127 0" result="hardAlpha"/>
<feOffset/>
<feGaussianBlur stdDeviation="1"/>
<feComposite in2="hardAlpha" operator="arithmetic" k2="-1" k3="1"/>
<feColorMatrix type="matrix" values="0 0 0 0 0 0 0 0 0 0 0 0 0 0 0 0 0 0 0.21 0"/>
<feBlend mode="normal" in2="shape" result="effect1_innerShadow"/>
</filter>
</defs>
</svg>
