<svg width="46" height="46" viewBox="0 0 46 46" fill="none" xmlns="http://www.w3.org/2000/svg">
<g filter="url(#filter0_i)">
<path d="M40.834 0.000244141L4.53712 0.000244141C2.0417 0.000244141 0.0226856 2.02939 0.0226856 4.50946L0 45.0924L9.07423 36.074H40.834C43.3295 36.074 45.3712 34.0448 45.3712 31.5647V4.50946C45.3712 2.02939 43.3295 0.000244141 40.834 0.000244141Z" fill="white"/>
</g>
<path d="M36.8095 17.4528H35.381C35.381 17.4528 33 17.4766 33 20.0718C33 22.667 35.381 22.6908 35.381 22.6908H36.8095V26.8813C36.8095 28.0337 35.8667 28.9766 34.7143 28.9766H29.7333H26.0762H21.0952C19.9429 28.9766 19 28.0337 19 26.8813V22.9004L19.0105 17.2432V13.2623C19.0105 12.1099 19.9429 11.167 21.0952 11.167H25.2857V10.5956C25.2857 9.1499 26.459 7.97656 27.9048 7.97656C29.3505 7.97656 30.5238 9.1499 30.5238 10.5956V11.167H34.7143C35.8667 11.167 36.8095 12.1099 36.8095 13.2623V17.4528Z" fill="#585858"/>
<path opacity="0.3" d="M17 22.3915H16.1979C16.1979 22.3915 14.861 22.4051 14.861 23.8881C14.861 25.3711 16.1979 25.3847 16.1979 25.3847H17V27.7793C17 28.4378 16.4706 28.9766 15.8235 28.9766H13.0267H10.9733H8.17647C7.52941 28.9766 7 28.4378 7 27.7793V25.5045L7.00588 22.2718V19.997C7.00588 19.3385 7.52941 18.7997 8.17647 18.7997H10.5294V18.4732C10.5294 17.647 11.1882 16.9766 12 16.9766C12.8118 16.9766 13.4706 17.647 13.4706 18.4732V18.7997H15.8235C16.4706 18.7997 17 19.3385 17 19.997V22.3915Z" fill="#585858"/>
<path fill-rule="evenodd" clip-rule="evenodd" d="M12.4277 9.13334L17.9288 10.9764L16.1482 5.45475L14.5945 6.99094L12.1674 4.53621L11.5537 5.14302L13.9808 7.59775L12.4277 9.13334Z" fill="#585858"/>
<defs>
<filter id="filter0_i" x="0" y="0.000244141" width="45.3712" height="45.0921" filterUnits="userSpaceOnUse" color-interpolation-filters="sRGB">
<feFlood flood-opacity="0" result="BackgroundImageFix"/>
<feBlend mode="normal" in="SourceGraphic" in2="BackgroundImageFix" result="shape"/>
<feColorMatrix in="SourceAlpha" type="matrix" values="0 0 0 0 0 0 0 0 0 0 0 0 0 0 0 0 0 0 127 0" result="hardAlpha"/>
<feOffset/>
<feGaussianBlur stdDeviation="1"/>
<feComposite in2="hardAlpha" operator="arithmetic" k2="-1" k3="1"/>
<feColorMatrix type="matrix" values="0 0 0 0 0 0 0 0 0 0 0 0 0 0 0 0 0 0 0.21 0"/>
<feBlend mode="normal" in2="shape" result="effect1_innerShadow"/>
</filter>
</defs>
</svg>
