<svg width="49" height="12" viewBox="0 0 49 12" fill="none" xmlns="http://www.w3.org/2000/svg">
<path d="M4.63477 8.53223L6.89062 1.04688H9.17383L5.70801 11H3.56836L0.116211 1.04688H2.39258L4.63477 8.53223ZM13.0908 11.1367C12.0062 11.1367 11.1221 10.804 10.4385 10.1387C9.75944 9.47331 9.41992 8.58691 9.41992 7.47949V7.28809C9.41992 6.54525 9.56348 5.88216 9.85059 5.29883C10.1377 4.71094 10.5433 4.25977 11.0674 3.94531C11.596 3.6263 12.1976 3.4668 12.8721 3.4668C13.8838 3.4668 14.679 3.78581 15.2578 4.42383C15.8411 5.06185 16.1328 5.96647 16.1328 7.1377V7.94434H11.4229C11.4867 8.42741 11.6781 8.81478 11.9971 9.10645C12.3206 9.39811 12.7285 9.54395 13.2207 9.54395C13.9818 9.54395 14.5765 9.26823 15.0049 8.7168L15.9756 9.80371C15.6794 10.223 15.2783 10.5511 14.7725 10.7881C14.2666 11.0205 13.7061 11.1367 13.0908 11.1367ZM12.8652 5.06641C12.4733 5.06641 12.1543 5.19857 11.9082 5.46289C11.6667 5.72721 11.5117 6.10547 11.4434 6.59766H14.1914V6.44043C14.1823 6.00293 14.0638 5.66569 13.8359 5.42871C13.6081 5.18717 13.2845 5.06641 12.8652 5.06641ZM21.417 5.45605C21.1481 5.4196 20.9111 5.40137 20.7061 5.40137C19.9587 5.40137 19.4688 5.6543 19.2363 6.16016V11H17.2607V3.60352H19.127L19.1816 4.48535C19.5781 3.80632 20.1273 3.4668 20.8291 3.4668C21.0479 3.4668 21.2529 3.49642 21.4443 3.55566L21.417 5.45605ZM25.0811 1.78516V3.60352H26.3457V5.05273H25.0811V8.74414C25.0811 9.01758 25.1335 9.21354 25.2383 9.33203C25.3431 9.45052 25.5436 9.50977 25.8398 9.50977C26.0586 9.50977 26.2523 9.49382 26.4209 9.46191V10.959C26.0335 11.0775 25.6348 11.1367 25.2246 11.1367C23.8392 11.1367 23.1328 10.4372 23.1055 9.03809V5.05273H22.0254V3.60352H23.1055V1.78516H25.0811ZM29.5312 11H27.5488V3.60352H29.5312V11ZM27.4326 1.68945C27.4326 1.39323 27.5306 1.14941 27.7266 0.958008C27.9271 0.766602 28.1982 0.670898 28.54 0.670898C28.8773 0.670898 29.1462 0.766602 29.3467 0.958008C29.5472 1.14941 29.6475 1.39323 29.6475 1.68945C29.6475 1.99023 29.5449 2.23633 29.3398 2.42773C29.1393 2.61914 28.8727 2.71484 28.54 2.71484C28.2074 2.71484 27.9385 2.61914 27.7334 2.42773C27.5329 2.23633 27.4326 1.99023 27.4326 1.68945ZM34.2412 9.54395C34.6058 9.54395 34.902 9.44368 35.1299 9.24316C35.3577 9.04264 35.4762 8.77604 35.4854 8.44336H37.3379C37.3333 8.94466 37.1966 9.40495 36.9277 9.82422C36.6589 10.2389 36.2897 10.5625 35.8203 10.7949C35.3555 11.0228 34.8405 11.1367 34.2754 11.1367C33.2181 11.1367 32.3841 10.8018 31.7734 10.1318C31.1628 9.45736 30.8574 8.52767 30.8574 7.34277V7.21289C30.8574 6.07357 31.1605 5.16439 31.7666 4.48535C32.3727 3.80632 33.2044 3.4668 34.2617 3.4668C35.1868 3.4668 35.9274 3.73112 36.4834 4.25977C37.0439 4.78385 37.3288 5.4834 37.3379 6.3584H35.4854C35.4762 5.97559 35.3577 5.66569 35.1299 5.42871C34.902 5.18717 34.6012 5.06641 34.2275 5.06641C33.7673 5.06641 33.4186 5.23503 33.1816 5.57227C32.9492 5.90495 32.833 6.44727 32.833 7.19922V7.4043C32.833 8.16536 32.9492 8.71224 33.1816 9.04492C33.4141 9.3776 33.7673 9.54395 34.2412 9.54395ZM42.752 11C42.6608 10.8223 42.5947 10.6012 42.5537 10.3369C42.0752 10.8701 41.4531 11.1367 40.6875 11.1367C39.9629 11.1367 39.3613 10.9271 38.8828 10.5078C38.4089 10.0885 38.1719 9.5599 38.1719 8.92188C38.1719 8.13802 38.4613 7.53646 39.04 7.11719C39.6234 6.69792 40.4642 6.486 41.5625 6.48145H42.4717V6.05762C42.4717 5.71582 42.3828 5.44238 42.2051 5.2373C42.0319 5.03223 41.7562 4.92969 41.3779 4.92969C41.0452 4.92969 40.7832 5.00944 40.5918 5.16895C40.4049 5.32845 40.3115 5.5472 40.3115 5.8252H38.3359C38.3359 5.39681 38.4681 5.00033 38.7324 4.63574C38.9967 4.27116 39.3704 3.98633 39.8535 3.78125C40.3366 3.57161 40.8789 3.4668 41.4805 3.4668C42.3919 3.4668 43.1143 3.69694 43.6475 4.15723C44.1852 4.61296 44.4541 5.25553 44.4541 6.08496V9.29102C44.4587 9.99284 44.5566 10.5238 44.748 10.8838V11H42.752ZM41.1182 9.62598C41.4098 9.62598 41.6787 9.56217 41.9248 9.43457C42.1709 9.30241 42.3532 9.12695 42.4717 8.9082V7.63672H41.7334C40.7445 7.63672 40.2181 7.97852 40.1543 8.66211L40.1475 8.77832C40.1475 9.02441 40.234 9.22721 40.4072 9.38672C40.5804 9.54622 40.8174 9.62598 41.1182 9.62598ZM48.0566 11H46.0742V0.5H48.0566V11Z" fill="#1C4459"/>
</svg>
