<svg width="20" height="32" viewBox="0 0 20 32" fill="none" xmlns="http://www.w3.org/2000/svg">
<path opacity="0.1" d="M6.96391 21.2153C6.96391 19.2016 7.19149 17.6154 7.64664 16.4569C8.1018 15.2845 8.83971 14.2707 9.86036 13.4156C10.881 12.5604 11.6534 11.7812 12.1775 11.0777C12.7154 10.3605 12.9844 9.57435 12.9844 8.71921C12.9844 6.63652 12.0879 5.59518 10.2948 5.59518C9.46727 5.59518 8.79833 5.89862 8.288 6.50549C7.77767 7.11237 7.50872 7.93303 7.48113 8.96747H0.488281C0.515866 6.20895 1.3848 4.0642 3.09508 2.53322C4.80537 0.988451 7.20528 0.216064 10.2948 0.216064C13.3706 0.216064 15.7498 0.926384 17.4325 2.34702C19.129 3.76766 19.9772 5.78828 19.9772 8.40887C19.9772 9.55366 19.7497 10.595 19.2945 11.5329C18.8393 12.4708 18.1083 13.4294 17.1015 14.4087L14.7223 16.6224C14.0464 17.2706 13.5775 17.9396 13.3154 18.6292C13.0533 19.305 12.9085 20.1671 12.8809 21.2153H6.96391ZM6.11567 27.5047C6.11567 26.4841 6.48117 25.6496 7.21218 25.0014C7.95698 24.3393 8.88108 24.0083 9.98449 24.0083C11.0879 24.0083 12.0051 24.3393 12.7361 25.0014C13.4809 25.6496 13.8533 26.4841 13.8533 27.5047C13.8533 28.5254 13.4809 29.3667 12.7361 30.0288C12.0051 30.677 11.0879 31.0012 9.98449 31.0012C8.88108 31.0012 7.95698 30.677 7.21218 30.0288C6.48117 29.3667 6.11567 28.5254 6.11567 27.5047Z" fill="black"/>
</svg>
