<svg width="1764" height="908" viewBox="0 0 1764 908" fill="none" xmlns="http://www.w3.org/2000/svg">
<path d="M170.181 28.8949C150.21 115.489 -2.36345 -47.0325 24.9442 28.8948C59.2913 124.395 -43.2448 120.18 24.9442 180.288C97.4458 244.197 -57.6212 251.531 24.9442 331.68C97.4458 395.59 -57.6213 402.924 24.944 483.073C97.4457 546.983 -57.6215 554.317 24.9439 634.466C97.4455 698.376 -57.6213 705.71 24.9441 785.859C81.5159 840.775 -42.2343 813.526 24.9439 878.738C45.6536 898.842 106.178 933.071 170.18 878.738C219.413 804.03 251.414 933.071 315.417 878.738C364.649 804.03 396.651 933.071 460.653 878.738C509.886 804.03 541.887 933.071 605.89 878.738C655.122 804.03 687.124 933.072 751.126 878.738C800.359 804.03 832.36 933.072 896.363 878.739C945.595 804.031 977.597 933.072 1041.6 878.739C1090.83 804.031 1116.31 933.072 1180.31 878.739C1229.54 804.031 1261.54 933.072 1325.54 878.739C1374.78 804.031 1406.78 933.072 1470.78 878.739C1520.01 804.031 1552.01 933.072 1616.02 878.739C1665.25 804.031 1676.77 933.072 1740.78 878.739C1740.78 878.739 1791 834.612 1740.78 785.859C1658.21 705.71 1813.28 698.376 1740.78 634.466C1658.21 554.317 1813.28 546.983 1740.78 483.073C1658.21 402.924 1813.28 395.59 1740.78 331.681C1658.21 251.532 1813.28 244.198 1740.78 180.288C1658.21 100.139 1784.72 81.5985 1740.78 38.4834C1740.78 38.4834 1680.02 -25.4382 1616.02 28.8948C1552.01 83.2279 1526.54 -45.8125 1477.31 28.8955C1413.31 83.2286 1381.3 -45.8126 1332.07 28.8954C1268.07 83.2285 1236.07 -45.8127 1186.84 28.8954C1122.83 83.2284 1090.83 -45.8127 1041.6 28.8953C977.595 83.2284 945.595 -45.8128 896.363 28.8952C832.36 83.2283 800.359 -45.8129 751.126 28.8951C687.124 83.2282 655.123 -45.813 605.89 28.8951C541.887 83.2282 509.886 -45.813 460.653 28.895C396.651 83.2281 364.649 -45.8131 315.417 28.8949C251.414 83.228 190.152 -57.6997 170.181 28.8949Z" fill="white"/>
</svg>
