<svg width="234" height="205" viewBox="0 0 234 205" fill="none" xmlns="http://www.w3.org/2000/svg">
<path fill-rule="evenodd" clip-rule="evenodd" d="M68 12C68 10.8954 68.8954 10 70 10H163C164.105 10 165 10.8954 165 12V95C165 96.1046 164.105 97 163 97H70C68.8954 97 68 96.1046 68 95V12ZM58 2C58 0.895431 58.8954 0 60 0H68H165V0C166.105 0 167 0.895431 167 2V6C167 7.10457 167.895 8 169 8H173C174.105 8 175 8.89543 175 10V10V97V105C175 106.105 174.105 107 173 107H165H68H60C58.8954 107 58 106.105 58 105V97V10V2Z" fill="white"/>
<rect x="158" y="8" width="10" height="10" rx="2" fill="white"/>
<path fill-rule="evenodd" clip-rule="evenodd" d="M0 92C0 80.9543 8.95431 72 20 72H214C225.046 72 234 80.9543 234 92V146C234 157.046 225.046 166 214 166H20C8.9543 166 0 157.046 0 146V92ZM209 97.5C209 101.09 206.09 104 202.5 104C198.91 104 196 101.09 196 97.5C196 93.9101 198.91 91 202.5 91C206.09 91 209 93.9101 209 97.5ZM55 141C52.7909 141 51 142.791 51 145C51 147.209 52.7909 149 55 149H179C181.209 149 183 147.209 183 145C183 142.791 181.209 141 179 141H55Z" fill="white"/>
<mask id="path-4-inside-1_363_21" fill="white">
<rect x="58" y="154" width="117" height="51" rx="5"/>
</mask>
<rect x="58" y="154" width="117" height="51" rx="5" stroke="white" stroke-width="20" mask="url(#path-4-inside-1_363_21)"/>
</svg>
