<svg width="64" height="12" viewBox="0 0 64 12" fill="none" xmlns="http://www.w3.org/2000/svg">
<path d="M8.2998 11H6.24902V6.73438H2.25V11H0.199219V1.04688H2.25V5.08008H6.24902V1.04688H8.2998V11ZM9.66016 7.2334C9.66016 6.49967 9.80143 5.8457 10.084 5.27148C10.3665 4.69727 10.7721 4.25293 11.3008 3.93848C11.834 3.62402 12.4515 3.4668 13.1533 3.4668C14.1514 3.4668 14.9648 3.77214 15.5938 4.38281C16.2272 4.99349 16.5804 5.82292 16.6533 6.87109L16.667 7.37695C16.667 8.51172 16.3503 9.42318 15.7168 10.1113C15.0833 10.7949 14.2334 11.1367 13.167 11.1367C12.1006 11.1367 11.2484 10.7949 10.6104 10.1113C9.97689 9.42773 9.66016 8.49805 9.66016 7.32227V7.2334ZM11.6357 7.37695C11.6357 8.07878 11.7679 8.61654 12.0322 8.99023C12.2965 9.35938 12.6748 9.54395 13.167 9.54395C13.6455 9.54395 14.0192 9.36165 14.2881 8.99707C14.557 8.62793 14.6914 8.04004 14.6914 7.2334C14.6914 6.54525 14.557 6.01204 14.2881 5.63379C14.0192 5.25553 13.641 5.06641 13.1533 5.06641C12.6702 5.06641 12.2965 5.25553 12.0322 5.63379C11.7679 6.00749 11.6357 6.58854 11.6357 7.37695ZM22.04 5.45605C21.7712 5.4196 21.5342 5.40137 21.3291 5.40137C20.5817 5.40137 20.0918 5.6543 19.8594 6.16016V11H17.8838V3.60352H19.75L19.8047 4.48535C20.2012 3.80632 20.7503 3.4668 21.4521 3.4668C21.6709 3.4668 21.876 3.49642 22.0674 3.55566L22.04 5.45605ZM25.082 11H23.0996V3.60352H25.082V11ZM22.9834 1.68945C22.9834 1.39323 23.0814 1.14941 23.2773 0.958008C23.4779 0.766602 23.749 0.670898 24.0908 0.670898C24.4281 0.670898 24.6969 0.766602 24.8975 0.958008C25.098 1.14941 25.1982 1.39323 25.1982 1.68945C25.1982 1.99023 25.0957 2.23633 24.8906 2.42773C24.6901 2.61914 24.4235 2.71484 24.0908 2.71484C23.7581 2.71484 23.4893 2.61914 23.2842 2.42773C23.0837 2.23633 22.9834 1.99023 22.9834 1.68945ZM28.9854 9.40723H32.6016V11H26.4629V9.79688L29.9424 5.20312H26.5654V3.60352H32.4922V4.77246L28.9854 9.40723ZM33.4219 7.2334C33.4219 6.49967 33.5632 5.8457 33.8457 5.27148C34.1283 4.69727 34.5339 4.25293 35.0625 3.93848C35.5957 3.62402 36.2132 3.4668 36.915 3.4668C37.9131 3.4668 38.7266 3.77214 39.3555 4.38281C39.9889 4.99349 40.3421 5.82292 40.415 6.87109L40.4287 7.37695C40.4287 8.51172 40.112 9.42318 39.4785 10.1113C38.8451 10.7949 37.9951 11.1367 36.9287 11.1367C35.8623 11.1367 35.0101 10.7949 34.3721 10.1113C33.7386 9.42773 33.4219 8.49805 33.4219 7.32227V7.2334ZM35.3975 7.37695C35.3975 8.07878 35.5296 8.61654 35.7939 8.99023C36.0583 9.35938 36.4365 9.54395 36.9287 9.54395C37.4072 9.54395 37.7809 9.36165 38.0498 8.99707C38.3187 8.62793 38.4531 8.04004 38.4531 7.2334C38.4531 6.54525 38.3187 6.01204 38.0498 5.63379C37.7809 5.25553 37.4027 5.06641 36.915 5.06641C36.432 5.06641 36.0583 5.25553 35.7939 5.63379C35.5296 6.00749 35.3975 6.58854 35.3975 7.37695ZM43.4639 3.60352L43.5254 4.45801C44.054 3.7972 44.7627 3.4668 45.6514 3.4668C46.4352 3.4668 47.0186 3.69694 47.4014 4.15723C47.7842 4.61751 47.9801 5.30566 47.9893 6.22168V11H46.0137V6.26953C46.0137 5.85026 45.9225 5.5472 45.7402 5.36035C45.5579 5.16895 45.2549 5.07324 44.8311 5.07324C44.2751 5.07324 43.8581 5.31022 43.5801 5.78418V11H41.6045V3.60352H43.4639ZM51.8584 1.78516V3.60352H53.123V5.05273H51.8584V8.74414C51.8584 9.01758 51.9108 9.21354 52.0156 9.33203C52.1204 9.45052 52.321 9.50977 52.6172 9.50977C52.8359 9.50977 53.0296 9.49382 53.1982 9.46191V10.959C52.8109 11.0775 52.4121 11.1367 52.002 11.1367C50.6165 11.1367 49.9102 10.4372 49.8828 9.03809V5.05273H48.8027V3.60352H49.8828V1.78516H51.8584ZM58.5098 11C58.4186 10.8223 58.3525 10.6012 58.3115 10.3369C57.833 10.8701 57.2109 11.1367 56.4453 11.1367C55.7207 11.1367 55.1191 10.9271 54.6406 10.5078C54.1667 10.0885 53.9297 9.5599 53.9297 8.92188C53.9297 8.13802 54.2191 7.53646 54.7979 7.11719C55.3812 6.69792 56.222 6.486 57.3203 6.48145H58.2295V6.05762C58.2295 5.71582 58.1406 5.44238 57.9629 5.2373C57.7897 5.03223 57.514 4.92969 57.1357 4.92969C56.8031 4.92969 56.541 5.00944 56.3496 5.16895C56.1628 5.32845 56.0693 5.5472 56.0693 5.8252H54.0938C54.0938 5.39681 54.2259 5.00033 54.4902 4.63574C54.7546 4.27116 55.1283 3.98633 55.6113 3.78125C56.0944 3.57161 56.6367 3.4668 57.2383 3.4668C58.1497 3.4668 58.8721 3.69694 59.4053 4.15723C59.943 4.61296 60.2119 5.25553 60.2119 6.08496V9.29102C60.2165 9.99284 60.3145 10.5238 60.5059 10.8838V11H58.5098ZM56.876 9.62598C57.1676 9.62598 57.4365 9.56217 57.6826 9.43457C57.9287 9.30241 58.111 9.12695 58.2295 8.9082V7.63672H57.4912C56.5023 7.63672 55.9759 7.97852 55.9121 8.66211L55.9053 8.77832C55.9053 9.02441 55.9919 9.22721 56.165 9.38672C56.3382 9.54622 56.5752 9.62598 56.876 9.62598ZM63.8145 11H61.832V0.5H63.8145V11Z" fill="#1C4459"/>
</svg>
