<svg width="85" height="33" viewBox="0 0 85 33" fill="none" xmlns="http://www.w3.org/2000/svg">
<path d="M82.5624 27.4359C83.9078 27.1253 84.7465 25.7829 84.4359 24.4376L79.3739 2.51437C79.0632 1.16906 77.7208 0.330282 76.3755 0.640915C75.0302 0.951547 74.1914 2.29396 74.502 3.63927L79.0016 23.1265L59.5144 27.6261C58.1691 27.9368 57.3303 29.2792 57.6409 30.6245C57.9515 31.9698 59.294 32.8086 60.6393 32.498L82.5624 27.4359ZM3.49208 27.0059C15.0823 18.3846 46.9962 6.07653 80.6753 27.1202L83.3247 22.8798C47.4386 0.45715 13.2655 13.5044 0.507916 22.9941L3.49208 27.0059Z" fill="#1C4459"/>
</svg>
