<svg width="117" height="195" viewBox="0 0 117 195" fill="none" xmlns="http://www.w3.org/2000/svg">
<path opacity="0.15" fill-rule="evenodd" clip-rule="evenodd" d="M19.442 0L97.2098 0.0975C107.903 0.0975 116.652 8.775 116.652 19.5V175.5C116.652 186.225 107.903 195 97.2098 195H19.442C8.74888 195 0 186.225 0 175.5V19.5C0 8.775 8.74888 0 19.442 0ZM19.442 156H97.2098V39H19.442V156ZM59.1964 182.812C64.0043 182.812 67.9018 178.915 67.9018 174.107C67.9018 169.299 64.0043 165.402 59.1964 165.402C54.3886 165.402 50.4911 169.299 50.4911 174.107C50.4911 178.915 54.3886 182.812 59.1964 182.812Z" fill="#1C4459"/>
</svg>
