<svg width="196" height="117" viewBox="0 0 196 117" fill="none" xmlns="http://www.w3.org/2000/svg">
<path fill-rule="evenodd" clip-rule="evenodd" d="M195.268 19.7901L195.171 97.558C195.171 108.251 186.493 117 175.768 117L19.7681 117C9.04309 117 0.268092 108.251 0.268093 97.558L0.268096 19.7901C0.268097 9.09702 9.04309 0.348136 19.7681 0.348137L175.768 0.348144C186.493 0.348144 195.268 9.09703 195.268 19.7901ZM39.2681 19.7901L39.2681 97.558L156.268 97.558L156.268 19.7901L39.2681 19.7901ZM12.4556 59.5446C12.4556 64.3524 16.3531 68.2499 21.1609 68.2499C25.9688 68.2499 29.8663 64.3524 29.8663 59.5446C29.8663 54.7367 25.9688 50.8392 21.1609 50.8392C16.3531 50.8392 12.4556 54.7367 12.4556 59.5446Z" fill="#1C4459"/>
</svg>
